<?xml version="1.0" encoding="UTF-8"?>
<svg xmlns="http://www.w3.org/2000/svg" xmlns:xlink="http://www.w3.org/1999/xlink" width="384pt" height="384pt" viewBox="0 0 384 384" version="1.1">
<g id="surface16395619">
<path style=" stroke:none;fill-rule:nonzero;fill:#edeef0;fill-opacity:1;" d="M 154.65625 32 L 146.8125 72.375 C 133.625 77.347656 121.515625 84.320312 110.90625 93.03125 L 72.125 79.65625 L 34.75 144.34375 L 65.8125 171.34375 C 64.617188 178.675781 64 185.46875 64 192 C 64 198.539062 64.636719 205.320312 65.8125 212.65625 L 65.8125 212.6875 L 34.75 239.6875 L 72.125 304.34375 L 110.875 291 C 121.484375 299.71875 133.621094 306.648438 146.8125 311.625 L 154.65625 352 L 229.34375 352 L 237.1875 311.625 C 250.382812 306.648438 262.476562 299.6875 273.09375 290.96875 L 311.875 304.34375 L 349.21875 239.6875 L 318.1875 212.65625 C 319.382812 205.324219 320 198.53125 320 192 C 320 185.480469 319.378906 178.695312 318.1875 171.375 L 318.1875 171.34375 L 349.25 144.3125 L 311.875 79.65625 L 273.125 93 C 262.511719 84.28125 250.378906 77.351562 237.1875 72.375 L 229.34375 32 Z M 181.03125 64 L 202.96875 64 L 209.1875 96 L 225.875 102.3125 C 235.933594 106.101562 244.972656 111.308594 252.8125 117.75 L 266.625 129.0625 L 297.375 118.5 L 308.34375 137.46875 L 283.78125 158.84375 L 286.59375 176.4375 L 286.59375 176.46875 C 287.570312 182.46875 288 187.5 288 192 C 288 196.5 287.570312 201.53125 286.59375 207.53125 L 283.75 225.125 L 308.3125 246.5 L 297.34375 265.5 L 266.625 254.90625 L 252.78125 266.25 C 244.941406 272.691406 235.933594 277.894531 225.875 281.6875 L 225.84375 281.6875 L 209.15625 288 L 202.9375 320 L 181.03125 320 L 174.8125 288 L 158.125 281.6875 C 148.066406 277.898438 139.027344 272.691406 131.1875 266.25 L 117.375 254.9375 L 86.625 265.5 L 75.65625 246.53125 L 100.25 225.125 L 97.40625 207.59375 L 97.40625 207.5625 C 96.441406 201.539062 96 196.492188 96 192 C 96 187.5 96.429688 182.46875 97.40625 176.46875 L 100.25 158.875 L 75.65625 137.5 L 86.625 118.5 L 117.375 129.09375 L 131.1875 117.75 C 139.027344 111.308594 148.066406 106.105469 158.125 102.3125 L 174.8125 96 Z M 192 128 C 156.855469 128 128 156.855469 128 192 C 128 227.144531 156.855469 256 192 256 C 227.144531 256 256 227.144531 256 192 C 256 156.855469 227.144531 128 192 128 Z M 192 160 C 209.785156 160 224 174.214844 224 192 C 224 209.785156 209.785156 224 192 224 C 174.214844 224 160 209.785156 160 192 C 160 174.214844 174.214844 160 192 160 Z M 192 160 "/>
</g>
</svg>
